<svg width="70" height="70" viewBox="0 0 70 70" fill="none" xmlns="http://www.w3.org/2000/svg">
<path d="M37.9167 56.875H20.4167L24.7917 45.2083H33.5417L37.9167 56.875Z" fill="#BEC6C6"/>
<path d="M20.4167 56.875H2.91675L7.29175 45.2083H16.0417L20.4167 56.875Z" fill="#BEC6C6"/>
<path d="M67.0834 56.875H37.9167L33.5417 45.2083H62.7084L67.0834 56.875Z" fill="#F8F9F9"/>
<path d="M24.7917 45.2083L20.4167 56.875L16.0417 45.2083H24.7917Z" fill="#F8F9F9"/>
<path d="M27.7083 45.2083H10.2083L14.5833 33.5417H23.3333L27.7083 45.2083Z" fill="#BEC6C6"/>
<path d="M59.7916 45.2083H27.7083L23.3333 33.5417H55.4166L59.7916 45.2083Z" fill="#F8F9F9"/>
<path d="M60.9147 16.3771L65.6251 18.9583L60.9147 21.5396L58.3334 26.25L55.7522 21.5396L51.0417 18.9583L55.7522 16.3771L58.3334 11.6667L60.9147 16.3771Z" fill="url(#paint0_linear_1071_924)"/>
<path d="M10.2958 24.7042L13.125 26.25L10.2958 27.7958L8.75 30.625L7.20417 27.7958L4.375 26.25L7.20417 24.7042L8.75 21.875L10.2958 24.7042Z" fill="url(#paint1_linear_1071_924)"/>
<path d="M46.6666 33.5417L42.2916 45.2083L18.9583 23.3333L27.7083 16.0417L46.6666 33.5417Z" fill="#F8F9F9"/>
<path d="M55.4166 33.5417H46.6666L27.7083 16.0417H36.4583L55.4166 33.5417Z" fill="#F8F9F9"/>
<path d="M59.7917 45.2083H42.2917L46.6667 33.5417H55.4167L59.7917 45.2083Z" fill="#BEC6C6"/>
<path d="M68.4542 56.3646L64.0792 44.6979C63.9749 44.4188 63.7876 44.1783 63.5425 44.0088C63.2974 43.8394 63.0063 43.749 62.7084 43.75H60.8125L56.7875 33.0313C56.5542 32.4479 57.7938 33.7604 37.45 14.9771C37.1811 14.7253 36.8268 14.5846 36.4584 14.5833H27.7084C26.9646 14.5833 27.4604 14.35 18.025 22.2104C17.8698 22.3473 17.7456 22.5156 17.6604 22.7042C17.5753 22.8927 17.5313 23.0973 17.5313 23.3042C17.5313 23.5111 17.5753 23.7156 17.6604 23.9042C17.7456 24.0928 17.8698 24.2611 18.025 24.3979L26.1625 32.0833H14.5834C14.2854 32.0824 13.9943 32.1727 13.7492 32.3422C13.5041 32.5116 13.3168 32.7521 13.2125 33.0313L9.18752 43.75H7.29169C6.99372 43.749 6.7026 43.8394 6.45752 44.0088C6.21243 44.1783 6.02515 44.4188 5.92086 44.6979L1.54586 56.3646C1.46329 56.5856 1.43556 56.8233 1.46505 57.0573C1.49454 57.2913 1.58036 57.5147 1.71515 57.7083C1.84995 57.9019 2.02969 58.0599 2.23897 58.1688C2.44824 58.2776 2.6808 58.3341 2.91669 58.3333H67.0834C67.3193 58.3341 67.5518 58.2776 67.7611 58.1688C67.9704 58.0599 68.1501 57.9019 68.2849 57.7083C68.4197 57.5147 68.5055 57.2913 68.535 57.0573C68.5645 56.8233 68.5368 56.5856 68.4542 56.3646ZM47.6729 35H54.4104L57.6917 43.75H44.4063L47.6729 35ZM35.8896 17.5L51.6834 32.0833H47.3084L31.4417 17.5H35.8896ZM21.1604 23.3333L27.7084 17.9813L45.0042 34.0229L44.6104 35.0729L41.6938 42.7292L21.1604 23.3333ZM29.2688 35L38.6021 43.75H28.7146L25.4479 35H29.2688ZM18.1563 46.6667H22.6771L20.4167 52.7042L18.1563 46.6667ZM15.5896 35H22.3271L25.5938 43.75H12.3084L15.5896 35ZM5.01669 55.4167L8.29794 46.6667H15.0354L18.3021 55.4167H5.01669ZM22.5167 55.4167L25.7834 46.6667H32.5209L35.7875 55.4167H22.5167ZM38.9084 55.4167L35.6417 46.6667H61.7021L64.9834 55.4167H38.9084Z" fill="url(#paint2_linear_1071_924)"/>
<defs>
<linearGradient id="paint0_linear_1071_924" x1="65.5556" y1="13.6111" x2="53.3334" y2="26.3194" gradientUnits="userSpaceOnUse">
<stop offset="0.164" stop-color="#3599CC"/>
<stop offset="0.809" stop-color="#012C57"/>
</linearGradient>
<linearGradient id="paint1_linear_1071_924" x1="13.0833" y1="23.0417" x2="5.75" y2="30.6667" gradientUnits="userSpaceOnUse">
<stop offset="0.164" stop-color="#3599CC"/>
<stop offset="0.809" stop-color="#012C57"/>
</linearGradient>
<linearGradient id="paint2_linear_1071_924" x1="68.2269" y1="20.416" x2="35.193" y2="73.0892" gradientUnits="userSpaceOnUse">
<stop offset="0.164" stop-color="#3599CC"/>
<stop offset="0.809" stop-color="#012C57"/>
</linearGradient>
</defs>
</svg>
