<svg width="70" height="70" viewBox="0 0 70 70" fill="none" xmlns="http://www.w3.org/2000/svg">
<g clip-path="url(#clip0_1071_968)">
<path fill-rule="evenodd" clip-rule="evenodd" d="M34.2824 51.5056C32.232 51.5056 6.31519 51.7926 6.31519 50.6854V31.2478C6.31519 30.0996 7.21735 29.1564 8.36557 29.1564H15.952V38.2601C15.952 38.9162 16.7311 39.3263 17.2642 38.8752L20.7089 36.1277C21.488 36.7838 24.0715 39.0803 24.6456 39.0803C25.0967 39.0803 25.4657 38.7112 25.4657 38.2601V29.1564H34.2824C34.7335 29.1564 35.1025 29.5255 35.1025 29.9766V50.6854C35.1025 51.1365 34.7335 51.5056 34.2824 51.5056ZM17.5923 29.1564H23.8254V36.5378C20.0937 33.5442 21.283 33.5442 17.5923 36.5378V29.1564ZM14.3527 44.4523H10.0469C8.98068 44.4523 8.98068 42.812 10.0469 42.812H14.3527C15.4599 42.812 15.4599 44.4523 14.3527 44.4523ZM14.3527 47.9379H10.0469C8.98068 47.9379 8.98068 46.2976 10.0469 46.2976H14.3527C15.4599 46.2976 15.4599 47.9379 14.3527 47.9379Z" fill="url(#paint0_linear_1071_968)"/>
<path fill-rule="evenodd" clip-rule="evenodd" d="M34.2823 51.5056C33.8312 51.5056 33.4622 51.1365 33.4622 50.6854V29.9766C33.4622 29.5255 33.8312 29.1564 34.2823 29.1564H43.14V38.2601C43.14 38.9162 43.9191 39.3263 44.4522 38.8752L47.8558 36.1277C48.676 36.7838 51.2595 39.0803 51.7926 39.0803C52.2436 39.0803 52.6127 38.7112 52.6127 38.2601V29.1564H60.1991C61.3473 29.1564 62.2905 30.0996 62.2905 31.2478V38.5882C61.2653 38.3421 60.1991 38.2191 59.1329 38.2191C52.2436 38.2191 46.6256 43.7962 46.6256 50.6854V50.8495C43.468 51.0955 39.6543 51.0545 35.1025 50.6854C35.1025 51.1365 34.7334 51.5056 34.2823 51.5056ZM41.5407 47.9379H37.2349C36.1277 47.9379 36.1277 46.2976 37.2349 46.2976H41.5407C42.6069 46.2976 42.6069 47.9379 41.5407 47.9379ZM41.5407 44.4523H37.2349C36.1277 44.4523 36.1277 42.812 37.2349 42.812H41.5407C42.6069 42.812 42.6069 44.4523 41.5407 44.4523ZM44.7803 29.1564H50.9724V36.5378C47.2817 33.5442 48.4709 33.5442 44.7803 36.5378V29.1564Z" fill="url(#paint1_linear_1071_968)"/>
<path fill-rule="evenodd" clip-rule="evenodd" d="M19.8887 27.5161V10.539C19.8887 9.34974 20.8318 8.44757 21.9801 8.44757H29.5255V16.157C29.5255 16.8541 30.3456 17.2232 30.8787 16.7721L34.2823 14.0246C35.1025 14.6807 37.645 16.9772 38.2191 16.9772C38.6702 16.9772 39.0392 16.6081 39.0392 16.157V8.44757H46.6256C47.7739 8.44757 48.717 9.34974 48.717 10.539V27.5161H34.2823H19.8887ZM31.1658 8.44757H37.3989V14.4347C33.7082 11.4821 34.8975 11.4821 31.1658 14.4347V8.44757ZM27.9672 22.3492H23.6614C22.5542 22.3492 22.5542 20.7088 23.6614 20.7088H27.9672C29.0334 20.7088 29.0334 22.3492 27.9672 22.3492ZM27.9672 25.8758H23.6614C22.5542 25.8758 22.5542 24.2355 23.6614 24.2355H27.9672C29.0334 24.2355 29.0334 25.8758 27.9672 25.8758Z" fill="url(#paint2_linear_1071_968)"/>
<path fill-rule="evenodd" clip-rule="evenodd" d="M47.815 56.0164H1.55839C-0.450987 56.0164 9.68836e-05 53.4329 9.68836e-05 51.4645C9.68836e-05 50.6034 0.697226 49.8652 1.55839 49.8652H46.6668C46.6258 50.1523 46.6258 50.4393 46.6258 50.6854C46.6258 52.6127 47.0358 54.3761 47.815 56.0164Z" fill="url(#paint3_linear_1071_968)"/>
<path fill-rule="evenodd" clip-rule="evenodd" d="M10.7442 59.5021H5.53622C5.08513 59.5021 4.71606 59.133 4.71606 58.6819V55.1963C4.71606 54.0891 10.5802 54.3761 10.7442 54.3761C11.1953 54.3761 11.5643 54.7452 11.5643 55.1963V58.6819C11.5643 59.133 11.1953 59.5021 10.7442 59.5021Z" fill="url(#paint4_linear_1071_968)"/>
<path fill-rule="evenodd" clip-rule="evenodd" d="M59.1331 61.5524C53.146 61.5524 48.2661 56.6725 48.2661 50.6854C48.2661 44.6983 53.146 39.8594 59.1331 39.8594C65.1202 39.8594 70.0002 44.6983 70.0002 50.6854C70.0002 56.6725 65.1202 61.5524 59.1331 61.5524ZM55.7295 50.2753C51.7928 50.2753 51.7928 44.3292 55.7295 44.3292C59.6662 44.3292 59.6662 50.2753 55.7295 50.2753ZM55.7295 45.9695C54.5403 45.9695 53.9252 47.4048 54.7863 48.2249C56.0166 49.4962 57.9439 47.6098 56.6727 46.3386C56.4266 46.0925 56.0986 45.9695 55.7295 45.9695ZM62.5368 57.0826C58.6 57.0826 58.6 51.1365 62.5368 51.1365C66.4735 51.1365 66.4735 57.0826 62.5368 57.0826ZM62.5368 52.7768C61.3475 52.7768 60.7324 54.212 61.5936 55.0322C62.8238 56.3034 64.7102 54.4171 63.4799 53.1458C63.2339 52.8998 62.8648 52.7768 62.5368 52.7768ZM55.4424 55.1962C54.7453 55.1962 54.3352 54.2941 54.8683 53.802L62.2087 46.4616C62.9878 45.6825 64.1361 46.8307 63.3979 47.6098L56.0166 54.9502C55.8525 55.1142 55.6475 55.1962 55.4424 55.1962Z" fill="url(#paint5_linear_1071_968)"/>
</g>
<defs>
<linearGradient id="paint0_linear_1071_968" x1="34.9655" y1="32.1408" x2="16.9584" y2="56.2216" gradientUnits="userSpaceOnUse">
<stop offset="0.164" stop-color="#3599CC"/>
<stop offset="0.809" stop-color="#012C57"/>
</linearGradient>
<linearGradient id="paint1_linear_1071_968" x1="62.1532" y1="32.1363" x2="44.188" y2="56.2315" gradientUnits="userSpaceOnUse">
<stop offset="0.164" stop-color="#3599CC"/>
<stop offset="0.809" stop-color="#012C57"/>
</linearGradient>
<linearGradient id="paint2_linear_1071_968" x1="48.5798" y1="10.99" x2="34.0937" y2="33.7616" gradientUnits="userSpaceOnUse">
<stop offset="0.164" stop-color="#3599CC"/>
<stop offset="0.809" stop-color="#012C57"/>
</linearGradient>
<linearGradient id="paint3_linear_1071_968" x1="47.5871" y1="50.6854" x2="46.3308" y2="60.8484" gradientUnits="userSpaceOnUse">
<stop offset="0.164" stop-color="#3599CC"/>
<stop offset="0.809" stop-color="#012C57"/>
</linearGradient>
<linearGradient id="paint4_linear_1071_968" x1="11.5317" y1="55.0306" x2="7.41961" y2="60.7058" gradientUnits="userSpaceOnUse">
<stop offset="0.164" stop-color="#3599CC"/>
<stop offset="0.809" stop-color="#012C57"/>
</linearGradient>
<linearGradient id="paint5_linear_1071_968" x1="69.8967" y1="42.7518" x2="51.7172" y2="61.69" gradientUnits="userSpaceOnUse">
<stop offset="0.164" stop-color="#3599CC"/>
<stop offset="0.809" stop-color="#012C57"/>
</linearGradient>
<clipPath id="clip0_1071_968">
<rect width="70" height="70" fill="white"/>
</clipPath>
</defs>
</svg>
