<svg width="70" height="70" viewBox="0 0 70 70" fill="none" xmlns="http://www.w3.org/2000/svg">
<path d="M15.3125 26.25C21.3437 26.25 26.25 21.3437 26.25 15.3125C26.25 9.28112 21.3437 4.375 15.3125 4.375C9.28125 4.375 4.375 9.28112 4.375 15.3125C4.375 21.3437 9.28125 26.25 15.3125 26.25ZM10.9375 13.125H13.125V10.9375C13.125 9.72839 14.1045 8.75 15.3125 8.75C16.5205 8.75 17.5 9.72839 17.5 10.9375V13.125H19.6875C20.8955 13.125 21.875 14.1034 21.875 15.3125C21.875 16.5216 20.8955 17.5 19.6875 17.5H17.5V19.6875C17.5 20.8966 16.5205 21.875 15.3125 21.875C14.1045 21.875 13.125 20.8966 13.125 19.6875V17.5H10.9375C9.72946 17.5 8.75 16.5216 8.75 15.3125C8.75 14.1034 9.72946 13.125 10.9375 13.125Z" fill="url(#paint0_linear_1070_494)"/>
<path d="M63.4375 37.1875C64.6455 37.1875 65.625 36.2091 65.625 35V15.3125C65.625 14.1034 64.6455 13.125 63.4375 13.125H54.4675C53.4517 8.13904 49.0318 4.375 43.75 4.375C38.4682 4.375 34.0483 8.13904 33.0325 13.125H28.4375C28.3695 13.125 28.3123 13.1574 28.2459 13.1637C28.3621 13.8647 28.4375 14.5791 28.4375 15.3125C28.4375 22.55 22.55 28.4375 15.3125 28.4375C14.5791 28.4375 13.8647 28.3621 13.1637 28.2459C13.1574 28.3123 13.125 28.3695 13.125 28.4375V33.0325C8.13904 34.0494 4.375 38.4671 4.375 43.75C4.375 49.0329 8.13904 53.4506 13.125 54.4675V63.4375C13.125 64.6466 14.1045 65.625 15.3125 65.625H35C36.208 65.625 37.1875 64.6466 37.1875 63.4375C37.1875 59.8187 40.1312 56.875 43.75 56.875C47.3688 56.875 50.3125 59.8187 50.3125 63.4375C50.3125 64.6466 51.292 65.625 52.5 65.625H63.4375C64.6455 65.625 65.625 64.6466 65.625 63.4375V52.5C65.625 51.2909 64.6455 50.3125 63.4375 50.3125C59.8187 50.3125 56.875 47.3688 56.875 43.75C56.875 40.1312 59.8187 37.1875 63.4375 37.1875Z" fill="url(#paint1_linear_1070_494)"/>
<defs>
<linearGradient id="paint0_linear_1070_494" x1="26.1458" y1="7.29167" x2="7.8125" y2="26.3542" gradientUnits="userSpaceOnUse">
<stop offset="0.164" stop-color="#3599CC"/>
<stop offset="0.809" stop-color="#012C57"/>
</linearGradient>
<linearGradient id="paint1_linear_1070_494" x1="65.3333" y1="12.5417" x2="14" y2="65.9167" gradientUnits="userSpaceOnUse">
<stop offset="0.164" stop-color="#3599CC"/>
<stop offset="0.809" stop-color="#012C57"/>
</linearGradient>
</defs>
</svg>
