<svg width="70" height="70" viewBox="0 0 70 70" fill="none" xmlns="http://www.w3.org/2000/svg">
<path d="M22.7521 29.8199C22.7907 30.4631 23.3433 30.9532 23.9865 30.9146C24.5693 30.8796 25.0265 30.4225 25.0784 29.8584C25.4123 30.0949 25.6081 30.4984 25.5651 30.9271L24.5883 40.6787C24.5181 41.3792 23.8483 41.8584 23.1627 41.6986L15.0877 39.817C14.6071 39.705 14.2489 39.3027 14.1933 38.8124L13.0211 28.4881C12.9427 27.7972 13.4743 27.2199 14.1246 27.1903L14.0056 28.4023C13.9426 29.0435 14.4114 29.6144 15.0526 29.6774C15.6938 29.7404 16.2647 29.2716 16.3277 28.6304L16.4197 27.6942L22.7152 29.2055L22.7521 29.8199Z" fill="url(#paint0_linear_1071_953)"/>
<path d="M16.6587 25.352L22.569 26.7709L22.5046 25.6967C22.4315 24.4781 21.6152 23.4306 20.4513 23.0621C18.7399 22.5201 16.9665 23.6193 16.6587 25.352Z" fill="url(#paint1_linear_1071_953)"/>
<path fill-rule="evenodd" clip-rule="evenodd" d="M33.8333 12.6303L11.7239 8.26554C8.63214 7.6552 5.83325 9.93644 5.83325 12.8527V45.8208C5.83325 48.014 7.43765 49.953 9.74258 50.408L33.8333 55.1639V12.6303ZM24.9408 27.3402L24.8339 25.5569C24.7029 23.3742 23.2406 21.4978 21.1559 20.8376C18.1162 19.875 14.9675 21.8024 14.3767 24.8605C12.2651 24.7347 10.4529 26.5513 10.7027 28.7513L11.8748 39.0756C12.0418 40.5466 13.1163 41.7534 14.5582 42.0894L22.6331 43.9711C24.6899 44.4504 26.6994 43.0127 26.91 40.9113L27.8868 31.1597C28.0799 29.2325 26.7248 27.7684 24.9408 27.3402Z" fill="url(#paint2_linear_1071_953)"/>
<path d="M42.5833 19.9039C42.5833 19.3605 42.9585 18.8891 43.488 18.7671L55.1547 16.0792C55.8856 15.9108 56.5833 16.4659 56.5833 17.216V25.0128C56.5833 25.5562 56.2081 26.0276 55.6785 26.1497L44.0118 28.8376C43.2809 29.006 42.5833 28.4507 42.5833 27.7006V19.9039Z" fill="url(#paint3_linear_1071_953)"/>
<path fill-rule="evenodd" clip-rule="evenodd" d="M62.9998 47.2504C62.9998 47.8557 62.9631 48.4525 62.8913 49.0385C63.6928 48.1947 64.1665 47.079 64.1665 45.8882V12.8509C64.1665 9.94106 61.3764 7.66157 58.2877 8.26351L36.1665 12.5742V39.3345C38.7647 35.322 43.2805 32.667 48.4165 32.667C56.4706 32.667 62.9998 39.1962 62.9998 47.2504ZM40.2498 19.9043V27.701C40.2498 29.9513 42.3428 31.6169 44.5356 31.1117L56.2023 28.4237C57.791 28.0578 58.9165 26.6434 58.9165 25.0131V17.2164C58.9165 14.9661 56.8236 13.3005 54.6307 13.8058L42.964 16.4936C41.3754 16.8597 40.2498 18.274 40.2498 19.9043Z" fill="url(#paint4_linear_1071_953)"/>
<path fill-rule="evenodd" clip-rule="evenodd" d="M60.6665 47.25C60.6665 50.0892 59.7005 52.7027 58.0796 54.78L63.4828 60.1837C64.3946 61.0948 64.3946 62.5718 63.4828 63.483C62.5717 64.3948 61.0947 64.3948 60.1835 63.483L54.5539 57.854C52.7493 58.9009 50.6529 59.5 48.4165 59.5C41.651 59.5 36.1665 54.0155 36.1665 47.25C36.1665 40.4845 41.651 35 48.4165 35C55.182 35 60.6665 40.4845 60.6665 47.25ZM55.9998 47.25C55.9998 51.4382 52.6047 54.8333 48.4165 54.8333C44.2283 54.8333 40.8332 51.4382 40.8332 47.25C40.8332 43.0618 44.2283 39.6667 48.4165 39.6667C52.6047 39.6667 55.9998 43.0618 55.9998 47.25Z" fill="url(#paint5_linear_1071_953)"/>
<defs>
<linearGradient id="paint0_linear_1071_953" x1="25.5112" y1="29.1288" x2="13.3869" y2="40.0172" gradientUnits="userSpaceOnUse">
<stop offset="0.164" stop-color="#3599CC"/>
<stop offset="0.809" stop-color="#012C57"/>
</linearGradient>
<linearGradient id="paint1_linear_1071_953" x1="22.5409" y1="23.436" x2="19.6375" y2="28.0728" gradientUnits="userSpaceOnUse">
<stop offset="0.164" stop-color="#3599CC"/>
<stop offset="0.809" stop-color="#012C57"/>
</linearGradient>
<linearGradient id="paint2_linear_1071_953" x1="33.6999" y1="14.4325" x2="-1.59364" y2="36.2957" gradientUnits="userSpaceOnUse">
<stop offset="0.164" stop-color="#3599CC"/>
<stop offset="0.809" stop-color="#012C57"/>
</linearGradient>
<linearGradient id="paint3_linear_1071_953" x1="56.5166" y1="17.7581" x2="45.8512" y2="29.8694" gradientUnits="userSpaceOnUse">
<stop offset="0.164" stop-color="#3599CC"/>
<stop offset="0.809" stop-color="#012C57"/>
</linearGradient>
<linearGradient id="paint4_linear_1071_953" x1="64.0332" y1="13.6161" x2="31.6347" y2="36.6939" gradientUnits="userSpaceOnUse">
<stop offset="0.164" stop-color="#3599CC"/>
<stop offset="0.809" stop-color="#012C57"/>
</linearGradient>
<linearGradient id="paint5_linear_1071_953" x1="64.0333" y1="38.8889" x2="39.5702" y2="63.3076" gradientUnits="userSpaceOnUse">
<stop offset="0.164" stop-color="#3599CC"/>
<stop offset="0.809" stop-color="#012C57"/>
</linearGradient>
</defs>
</svg>
