<svg width="70" height="70" viewBox="0 0 70 70" fill="none" xmlns="http://www.w3.org/2000/svg">
<g clip-path="url(#clip0_1071_979)">
<path d="M32.6559 67.5653L17.4001 41.1413C17.1607 40.7268 16.727 40.5366 16.3095 40.5708L15.5566 41.614L14.0127 65.2838L32.5712 68.8409C32.8378 68.493 32.9061 67.9984 32.6559 67.5653Z" fill="url(#paint0_linear_1071_979)"/>
<path d="M62.0978 2.6543H44.2143C43.6323 2.6543 43.072 2.8751 42.6465 3.27228L36.6773 8.84366C36.2482 9.24412 36.19 9.90339 36.542 10.3729L52.2369 31.2994C52.6965 31.9122 53.6156 31.9122 54.0752 31.2994L69.7701 10.3728C70.1221 9.90325 70.0639 9.24398 69.6348 8.84353L63.6656 3.27214C63.2401 2.8751 62.6798 2.6543 62.0978 2.6543Z" fill="url(#paint1_linear_1071_979)"/>
<path d="M69.635 8.84353L63.6657 3.27228C63.2403 2.8751 62.6798 2.6543 62.0979 2.6543H60.0493V9.5475H69.9859C69.9546 9.28664 69.8402 9.03494 69.635 8.84353Z" fill="url(#paint2_linear_1071_979)"/>
<path d="M36.3265 9.54749C36.2923 9.83214 36.3585 10.1277 36.5423 10.3727L52.2372 31.2993C52.467 31.6057 52.8115 31.7588 53.1562 31.7588V9.54749H36.3265Z" fill="url(#paint3_linear_1071_979)"/>
<path d="M52.883 31.6965C53.0656 31.7416 53.2464 31.7416 53.429 31.6965L62.9492 2.81877C62.6805 2.71158 62.3921 2.6543 62.0977 2.6543H44.2143C43.9199 2.6543 43.6315 2.71158 43.3628 2.81877L52.883 31.6965Z" fill="url(#paint4_linear_1071_979)"/>
<path d="M53.156 2.6543L46.2629 9.5475H60.0492L53.156 2.6543Z" fill="url(#paint5_linear_1071_979)"/>
<path d="M61.3956 69.2885H61.1979L53.5249 66.9243L45.1139 69.2885H44.9169C44.3075 69.2885 43.723 69.0463 43.2921 68.6155L38.8936 64.2171C38.4627 63.7861 38.2207 63.2018 38.2207 62.5923V62.3954L40.3996 53.7649L38.2207 46.3111V46.1134C38.2207 45.5041 38.4628 44.9196 38.8936 44.4886L43.2916 40.0907C43.7225 39.6598 44.3068 39.4178 44.9163 39.4178H45.114L52.7275 41.0155L61.1981 39.4178H61.3952C62.0046 39.4178 62.5889 39.6598 63.0199 40.0907L67.4183 44.4886C67.8493 44.9196 68.0914 45.5041 68.0914 46.1134V46.311L66.2401 53.7306L68.0914 62.3951V62.5922C68.0914 63.2015 67.8494 63.7859 67.4185 64.2168L63.0205 68.6153C62.5895 69.0464 62.0051 69.2885 61.3956 69.2885Z" fill="url(#paint6_linear_1071_979)"/>
<path d="M30.1781 8.3099L17.5406 1.01897C17.1852 0.814028 16.7887 0.711487 16.3922 0.711487L4.98901 10.3002V24.879L16.3924 34.4675C16.7889 34.4675 17.1852 34.365 17.5406 34.16L30.1781 26.8693C30.5337 26.664 30.8211 26.3719 31.0196 26.0281L31.0202 9.15183C30.8217 8.80784 30.5341 8.51526 30.1781 8.3099Z" fill="url(#paint7_linear_1071_979)"/>
<path d="M2.60676 26.8692C2.25293 26.665 1.96718 26.3742 1.7688 26.0326L7.43808 22.7594L16.3926 26.7804V34.4675C15.9961 34.4675 15.5996 34.3651 15.2444 34.16L2.60676 26.8692Z" fill="url(#paint8_linear_1071_979)"/>
<path d="M1.46826 10.2166V24.9624C1.48248 25.3443 1.58215 25.7118 1.76864 26.0327L7.43792 22.7594V12.4196L1.76864 9.14636C1.58229 9.46725 1.48248 9.83475 1.46826 10.2166Z" fill="url(#paint9_linear_1071_979)"/>
<path d="M31.3278 24.9624V10.2166C31.3136 9.83476 31.2068 9.47273 31.0203 9.15198L25.3582 12.4196V22.7594L31.0192 26.0279C31.2056 25.707 31.3136 25.3443 31.3278 24.9624Z" fill="url(#paint10_linear_1071_979)"/>
<path d="M2.60676 8.30976C2.25293 8.51403 1.96718 8.80483 1.7688 9.14636L7.43808 12.4196L16.3926 8.39863V0.711487C15.9961 0.711487 15.5996 0.813891 15.2444 1.01897L2.60676 8.30976Z" fill="url(#paint11_linear_1071_979)"/>
<path d="M16.3924 6.98724L7.20142 12.2896V22.8894L16.3924 28.1919L25.5833 22.8894V12.2896L16.3924 6.98724Z" fill="url(#paint12_linear_1071_979)"/>
<path d="M16.3925 9.2124L9.13037 13.4019V21.7771L16.3925 25.9668L23.6544 21.7771V13.4019L16.3925 9.2124Z" fill="url(#paint13_linear_1071_979)"/>
<path d="M31.6608 69.2885C32.0449 69.2885 32.3666 69.1078 32.5712 68.8409L22.5913 62.8165L10.8633 61.6055L0.144531 68.6912C0.334847 69.0376 0.697432 69.2885 1.14916 69.2885H31.6608Z" fill="url(#paint14_linear_1071_979)"/>
<path d="M16.3085 52.3017L16.3093 40.5708C15.9559 40.6002 15.6126 40.7905 15.4101 41.1413L0.154357 67.5653C-0.0619357 67.9401 -0.0375993 68.3594 0.14465 68.6913L10.7757 62.6276L16.3085 52.3017Z" fill="url(#paint15_linear_1071_979)"/>
<path d="M15.41 51.8094L9.39291 62.2312C8.95076 62.9971 9.50352 63.9544 10.3878 63.9544H22.4219C23.3063 63.9544 23.8591 62.9971 23.4168 62.2312L17.3998 51.8094C16.9578 51.0434 15.8523 51.0434 15.41 51.8094Z" fill="url(#paint16_linear_1071_979)"/>
<path d="M68.0916 62.3953H61.1983V46.3112H68.0916V62.3953Z" fill="url(#paint17_linear_1071_979)"/>
<path d="M45.114 62.3953H38.2208V46.3112H45.114V62.3953Z" fill="url(#paint18_linear_1071_979)"/>
<path d="M45.1143 39.418H61.1984V46.3112H45.1143V39.418Z" fill="url(#paint19_linear_1071_979)"/>
<path d="M45.1143 62.3953H61.1984V69.2885H45.1143V62.3953Z" fill="url(#paint20_linear_1071_979)"/>
<path d="M56.6028 60.0976H49.7096C48.4406 60.0976 47.4119 59.0689 47.4119 57.7998V50.9066C47.4119 49.6376 48.4406 48.6089 49.7096 48.6089H56.6028C57.8719 48.6089 58.9005 49.6376 58.9005 50.9066V57.7998C58.9005 59.0689 57.8719 60.0976 56.6028 60.0976Z" fill="url(#paint21_linear_1071_979)"/>
</g>
<defs>
<linearGradient id="paint0_linear_1071_979" x1="32.722" y1="44.3368" x2="10.5365" y2="59.6741" gradientUnits="userSpaceOnUse">
<stop offset="0.164" stop-color="#3599CC"/>
<stop offset="0.809" stop-color="#012C57"/>
</linearGradient>
<linearGradient id="paint1_linear_1071_979" x1="69.8394" y1="6.53493" x2="45.8412" y2="35.4167" gradientUnits="userSpaceOnUse">
<stop offset="0.164" stop-color="#3599CC"/>
<stop offset="0.809" stop-color="#012C57"/>
</linearGradient>
<linearGradient id="paint2_linear_1071_979" x1="69.9386" y1="3.57339" x2="64.6002" y2="11.5748" gradientUnits="userSpaceOnUse">
<stop offset="0.164" stop-color="#3599CC"/>
<stop offset="0.809" stop-color="#012C57"/>
</linearGradient>
<linearGradient id="paint3_linear_1071_979" x1="53.076" y1="12.509" x2="34.9619" y2="26.7875" gradientUnits="userSpaceOnUse">
<stop offset="0.164" stop-color="#3599CC"/>
<stop offset="0.809" stop-color="#012C57"/>
</linearGradient>
<linearGradient id="paint4_linear_1071_979" x1="62.8559" y1="6.5311" x2="39.9373" y2="22.5838" gradientUnits="userSpaceOnUse">
<stop offset="0.164" stop-color="#3599CC"/>
<stop offset="0.809" stop-color="#012C57"/>
</linearGradient>
<linearGradient id="paint5_linear_1071_979" x1="59.9836" y1="3.57339" x2="55.4674" y2="12.9648" gradientUnits="userSpaceOnUse">
<stop offset="0.164" stop-color="#3599CC"/>
<stop offset="0.809" stop-color="#012C57"/>
</linearGradient>
<linearGradient id="paint6_linear_1071_979" x1="67.9492" y1="43.4005" x2="42.9147" y2="69.4307" gradientUnits="userSpaceOnUse">
<stop offset="0.164" stop-color="#3599CC"/>
<stop offset="0.809" stop-color="#012C57"/>
</linearGradient>
<linearGradient id="paint7_linear_1071_979" x1="30.8962" y1="5.21229" x2="3.2607" y2="27.3712" gradientUnits="userSpaceOnUse">
<stop offset="0.164" stop-color="#3599CC"/>
<stop offset="0.809" stop-color="#012C57"/>
</linearGradient>
<linearGradient id="paint8_linear_1071_979" x1="16.323" y1="24.3205" x2="6.82915" y2="36.6502" gradientUnits="userSpaceOnUse">
<stop offset="0.164" stop-color="#3599CC"/>
<stop offset="0.809" stop-color="#012C57"/>
</linearGradient>
<linearGradient id="paint9_linear_1071_979" x1="7.40949" y1="11.3979" x2="-1.76329" y2="14.7696" gradientUnits="userSpaceOnUse">
<stop offset="0.164" stop-color="#3599CC"/>
<stop offset="0.809" stop-color="#012C57"/>
</linearGradient>
<linearGradient id="paint10_linear_1071_979" x1="31.2994" y1="11.4021" x2="22.1279" y2="14.7754" gradientUnits="userSpaceOnUse">
<stop offset="0.164" stop-color="#3599CC"/>
<stop offset="0.809" stop-color="#012C57"/>
</linearGradient>
<linearGradient id="paint11_linear_1071_979" x1="16.323" y1="2.27257" x2="6.82915" y2="14.6023" gradientUnits="userSpaceOnUse">
<stop offset="0.164" stop-color="#3599CC"/>
<stop offset="0.809" stop-color="#012C57"/>
</linearGradient>
<linearGradient id="paint12_linear_1071_979" x1="25.4958" y1="9.81453" x2="7.80623" y2="25.7592" gradientUnits="userSpaceOnUse">
<stop offset="0.164" stop-color="#3599CC"/>
<stop offset="0.809" stop-color="#012C57"/>
</linearGradient>
<linearGradient id="paint13_linear_1071_979" x1="23.5852" y1="11.4463" x2="9.60825" y2="24.0446" gradientUnits="userSpaceOnUse">
<stop offset="0.164" stop-color="#3599CC"/>
<stop offset="0.809" stop-color="#012C57"/>
</linearGradient>
<linearGradient id="paint14_linear_1071_979" x1="32.4168" y1="62.6299" x2="29.625" y2="74.8817" gradientUnits="userSpaceOnUse">
<stop offset="0.164" stop-color="#3599CC"/>
<stop offset="0.809" stop-color="#012C57"/>
</linearGradient>
<linearGradient id="paint15_linear_1071_979" x1="16.2317" y1="44.3202" x2="-4.62862" y2="56.8999" gradientUnits="userSpaceOnUse">
<stop offset="0.164" stop-color="#3599CC"/>
<stop offset="0.809" stop-color="#012C57"/>
</linearGradient>
<linearGradient id="paint16_linear_1071_979" x1="23.5042" y1="52.9309" x2="12.9687" y2="65.2769" gradientUnits="userSpaceOnUse">
<stop offset="0.164" stop-color="#3599CC"/>
<stop offset="0.809" stop-color="#012C57"/>
</linearGradient>
<linearGradient id="paint17_linear_1071_979" x1="61.2312" y1="60.2508" x2="71.2623" y2="55.7807" gradientUnits="userSpaceOnUse">
<stop offset="0.164" stop-color="#3599CC"/>
<stop offset="0.809" stop-color="#012C57"/>
</linearGradient>
<linearGradient id="paint18_linear_1071_979" x1="38.2536" y1="60.2508" x2="48.2847" y2="55.7807" gradientUnits="userSpaceOnUse">
<stop offset="0.164" stop-color="#3599CC"/>
<stop offset="0.809" stop-color="#012C57"/>
</linearGradient>
<linearGradient id="paint19_linear_1071_979" x1="61.1218" y1="40.3371" x2="57.0479" y2="50.221" gradientUnits="userSpaceOnUse">
<stop offset="0.164" stop-color="#3599CC"/>
<stop offset="0.809" stop-color="#012C57"/>
</linearGradient>
<linearGradient id="paint20_linear_1071_979" x1="61.1218" y1="63.3144" x2="57.0479" y2="73.1983" gradientUnits="userSpaceOnUse">
<stop offset="0.164" stop-color="#3599CC"/>
<stop offset="0.809" stop-color="#012C57"/>
</linearGradient>
<linearGradient id="paint21_linear_1071_979" x1="58.8458" y1="50.1407" x2="49.2172" y2="60.1523" gradientUnits="userSpaceOnUse">
<stop offset="0.164" stop-color="#3599CC"/>
<stop offset="0.809" stop-color="#012C57"/>
</linearGradient>
<clipPath id="clip0_1071_979">
<rect width="70" height="70" fill="white"/>
</clipPath>
</defs>
</svg>
