<svg width="70" height="70" viewBox="0 0 70 70" fill="none" xmlns="http://www.w3.org/2000/svg">
<path d="M34.9999 1.06061C16.3333 1.06061 1.06055 16.2273 1.06055 35C1.06055 53.6667 16.3333 68.9394 34.9999 68.9394C53.7727 68.9394 68.9393 53.6667 68.9393 35C68.9393 16.2273 53.7727 1.06061 34.9999 1.06061ZM66.8181 33.9394H60.0302C59.9242 28.3182 58.7575 22.9091 56.8484 18.3485C62.6818 22.2727 66.3939 27.7879 66.8181 33.9394ZM36.0605 3.18182C42.2121 3.60606 47.7272 7.31818 51.6515 13.1515C46.9848 11.2424 41.6818 10.0758 36.0605 9.9697V3.18182ZM36.0605 12.0909C42.6363 12.197 48.6818 13.7879 53.5605 16.4394C56.106 21.4242 57.6969 27.4697 57.909 33.9394H54.1969C54.0908 32.9848 54.0908 31.9242 53.7727 30.9697C53.6666 30.4394 53.1363 30.0152 52.606 30.1212C50.909 30.3333 49.4242 30.0152 49.106 29.1667C48.7878 28.3182 49.5302 27.0455 50.909 26.0909C51.3333 25.7727 51.4393 25.1364 51.1212 24.7121C49.6363 22.2727 47.6212 20.3636 45.2878 18.8788C44.8636 18.5606 44.2272 18.6667 43.909 19.0909C42.8484 20.4697 41.5757 21.2121 40.8333 20.8939C40.0908 20.5758 39.6666 19.0909 39.8787 17.3939C39.9848 16.8636 39.5605 16.3333 39.0302 16.2273C37.9696 16.0152 36.909 15.9091 35.8484 15.803V12.0909H36.0605ZM53.5605 53.5606C48.6818 56.2121 42.6363 57.803 36.0605 57.9091V54.197C37.0151 54.0909 38.0757 53.9848 39.0302 53.7727C39.1363 53.7727 39.1363 53.7727 39.2424 53.6667C39.6666 53.4545 39.9848 53.0303 39.8787 52.5C39.6666 50.803 39.9848 49.3182 40.8333 49C41.5757 48.6818 42.9545 49.4242 43.909 50.803C44.2272 51.2273 44.7575 51.3333 45.1818 51.1212C45.2878 51.1212 45.2878 51.1212 45.2878 51.0151C47.6212 49.5303 49.6363 47.6212 51.1212 45.1818C51.4393 44.7576 51.3333 44.1212 50.909 43.803C49.5302 42.7424 48.7878 41.4697 49.106 40.7273C49.4242 39.9848 50.803 39.5606 52.606 39.7727C53.1363 39.8788 53.6666 39.4545 53.7727 38.9242C53.9848 37.8636 54.0908 36.803 54.1969 35.7424H57.909C57.803 42.6364 56.2121 48.5758 53.5605 53.5606ZM33.9393 3.18182V9.9697C28.3181 10.0758 23.0151 11.2424 18.3484 13.1515C22.2727 7.42424 27.7878 3.60606 33.9393 3.18182ZM33.9393 12.0909V15.803C32.9848 15.803 32.0302 16.0152 30.9696 16.1212C30.8636 16.1212 30.8636 16.1212 30.7575 16.2273C30.3333 16.4394 30.0151 16.8636 30.1212 17.3939C30.3333 19.0909 30.0151 20.5758 29.1666 20.8939C28.3181 21.2121 27.0454 20.4697 26.0908 19.0909C25.7727 18.6667 25.2424 18.5606 24.8181 18.6667C24.7121 18.6667 24.7121 18.7727 24.606 18.7727C22.2727 20.2576 20.2575 22.1667 18.7727 24.6061C18.4545 25.0303 18.5605 25.6667 18.9848 25.9848C20.3636 27.0455 21.106 28.3182 20.7878 29.1667C20.4696 29.9091 18.9848 30.3333 17.2878 30.0152C16.7575 29.9091 16.2272 30.3333 16.1212 30.8636C15.909 31.9242 15.803 32.9848 15.6969 34.0455H11.9848C12.0908 27.4697 13.6818 21.4242 16.3333 16.5455C21.4242 13.7879 27.4696 12.197 33.9393 12.0909ZM13.1515 18.3485C11.2424 23.0152 10.0757 28.3182 9.96964 33.9394H3.18176C3.606 27.7879 7.42418 22.2727 13.1515 18.3485ZM3.18176 36.0606H9.96964C10.0757 41.6818 11.2424 46.9848 13.1515 51.6515C7.42418 47.7273 3.606 42.2121 3.18176 36.0606ZM33.9393 66.8182C27.7878 66.3939 22.2727 62.6818 18.3484 56.8485C23.0151 58.7576 28.3181 59.9242 33.9393 60.0303V66.8182ZM33.9393 57.9091C27.4696 57.803 21.4242 56.2121 16.4393 53.5606C13.7878 48.5758 12.303 42.6364 12.0908 36.0606H15.803C15.909 37.0152 15.909 38.0758 16.2272 39.0303C16.3333 39.5606 16.8636 39.8788 17.3939 39.8788C19.0908 39.6667 20.5757 39.9848 20.8939 40.8333C21.2121 41.6818 20.4696 42.9545 19.0908 43.9091C18.6666 44.2273 18.5605 44.8636 18.7727 45.2879C20.2575 47.7273 22.2727 49.6364 24.606 51.1212C25.0302 51.4394 25.6666 51.3333 25.9848 50.9091C27.0454 49.5303 28.3181 48.7879 29.0605 49.1061C29.803 49.4242 30.2272 50.9091 30.0151 52.6061C29.909 53.1364 30.3333 53.6667 30.8636 53.7727C31.9242 53.9848 32.9848 54.0909 34.0454 54.197L33.9393 57.9091ZM34.9999 46.1364C33.303 46.1364 31.606 45.7121 29.909 44.8636C24.3939 42.1061 22.2727 35.3182 25.0302 29.803C27.7878 24.2879 34.5757 22.1667 40.0908 24.9242C42.7424 26.303 44.7575 28.6364 45.606 31.3939C46.5605 34.2576 46.2424 37.2273 44.9696 39.8788C42.9545 43.9091 39.0302 46.1364 34.9999 46.1364ZM36.0605 60.0303C41.6818 59.9242 47.0908 58.7576 51.6515 56.8485C47.7272 62.5758 42.2121 66.3939 36.0605 66.8182V60.0303ZM56.8484 51.6515C58.7575 46.9848 59.9242 41.6818 60.0302 36.0606H66.8181C66.3939 42.2121 62.6818 47.7273 56.8484 51.6515Z" fill="url(#paint0_linear_1071_912)"/>
<path d="M34.9999 1.06061C16.3333 1.06061 1.06055 16.2273 1.06055 35C1.06055 53.6667 16.3333 68.9394 34.9999 68.9394C53.7727 68.9394 68.9393 53.6667 68.9393 35C68.9393 16.2273 53.7727 1.06061 34.9999 1.06061ZM66.8181 33.9394H60.0302C59.9242 28.3182 58.7575 22.9091 56.8484 18.3485C62.6818 22.2727 66.3939 27.7879 66.8181 33.9394ZM36.0605 3.18182C42.2121 3.60606 47.7272 7.31818 51.6515 13.1515C46.9848 11.2424 41.6818 10.0758 36.0605 9.9697V3.18182ZM36.0605 12.0909C42.6363 12.197 48.6818 13.7879 53.5605 16.4394C56.106 21.4242 57.6969 27.4697 57.909 33.9394H54.1969C54.0908 32.9848 54.0908 31.9242 53.7727 30.9697C53.6666 30.4394 53.1363 30.0152 52.606 30.1212C50.909 30.3333 49.4242 30.0152 49.106 29.1667C48.7878 28.3182 49.5302 27.0455 50.909 26.0909C51.3333 25.7727 51.4393 25.1364 51.1212 24.7121C49.6363 22.2727 47.6212 20.3636 45.2878 18.8788C44.8636 18.5606 44.2272 18.6667 43.909 19.0909C42.8484 20.4697 41.5757 21.2121 40.8333 20.8939C40.0908 20.5758 39.6666 19.0909 39.8787 17.3939C39.9848 16.8636 39.5605 16.3333 39.0302 16.2273C37.9696 16.0152 36.909 15.9091 35.8484 15.803V12.0909H36.0605ZM53.5605 53.5606C48.6818 56.2121 42.6363 57.803 36.0605 57.9091V54.197C37.0151 54.0909 38.0757 53.9848 39.0302 53.7727C39.1363 53.7727 39.1363 53.7727 39.2424 53.6667C39.6666 53.4545 39.9848 53.0303 39.8787 52.5C39.6666 50.803 39.9848 49.3182 40.8333 49C41.5757 48.6818 42.9545 49.4242 43.909 50.803C44.2272 51.2273 44.7575 51.3333 45.1818 51.1212C45.2878 51.1212 45.2878 51.1212 45.2878 51.0151C47.6212 49.5303 49.6363 47.6212 51.1212 45.1818C51.4393 44.7576 51.3333 44.1212 50.909 43.803C49.5302 42.7424 48.7878 41.4697 49.106 40.7273C49.4242 39.9848 50.803 39.5606 52.606 39.7727C53.1363 39.8788 53.6666 39.4545 53.7727 38.9242C53.9848 37.8636 54.0908 36.803 54.1969 35.7424H57.909C57.803 42.6364 56.2121 48.5758 53.5605 53.5606ZM33.9393 3.18182V9.9697C28.3181 10.0758 23.0151 11.2424 18.3484 13.1515C22.2727 7.42424 27.7878 3.60606 33.9393 3.18182ZM33.9393 12.0909V15.803C32.9848 15.803 32.0302 16.0152 30.9696 16.1212C30.8636 16.1212 30.8636 16.1212 30.7575 16.2273C30.3333 16.4394 30.0151 16.8636 30.1212 17.3939C30.3333 19.0909 30.0151 20.5758 29.1666 20.8939C28.3181 21.2121 27.0454 20.4697 26.0908 19.0909C25.7727 18.6667 25.2424 18.5606 24.8181 18.6667C24.7121 18.6667 24.7121 18.7727 24.606 18.7727C22.2727 20.2576 20.2575 22.1667 18.7727 24.6061C18.4545 25.0303 18.5605 25.6667 18.9848 25.9848C20.3636 27.0455 21.106 28.3182 20.7878 29.1667C20.4696 29.9091 18.9848 30.3333 17.2878 30.0152C16.7575 29.9091 16.2272 30.3333 16.1212 30.8636C15.909 31.9242 15.803 32.9848 15.6969 34.0455H11.9848C12.0908 27.4697 13.6818 21.4242 16.3333 16.5455C21.4242 13.7879 27.4696 12.197 33.9393 12.0909ZM13.1515 18.3485C11.2424 23.0152 10.0757 28.3182 9.96964 33.9394H3.18176C3.606 27.7879 7.42418 22.2727 13.1515 18.3485ZM3.18176 36.0606H9.96964C10.0757 41.6818 11.2424 46.9848 13.1515 51.6515C7.42418 47.7273 3.606 42.2121 3.18176 36.0606ZM33.9393 66.8182C27.7878 66.3939 22.2727 62.6818 18.3484 56.8485C23.0151 58.7576 28.3181 59.9242 33.9393 60.0303V66.8182ZM33.9393 57.9091C27.4696 57.803 21.4242 56.2121 16.4393 53.5606C13.7878 48.5758 12.303 42.6364 12.0908 36.0606H15.803C15.909 37.0152 15.909 38.0758 16.2272 39.0303C16.3333 39.5606 16.8636 39.8788 17.3939 39.8788C19.0908 39.6667 20.5757 39.9848 20.8939 40.8333C21.2121 41.6818 20.4696 42.9545 19.0908 43.9091C18.6666 44.2273 18.5605 44.8636 18.7727 45.2879C20.2575 47.7273 22.2727 49.6364 24.606 51.1212C25.0302 51.4394 25.6666 51.3333 25.9848 50.9091C27.0454 49.5303 28.3181 48.7879 29.0605 49.1061C29.803 49.4242 30.2272 50.9091 30.0151 52.6061C29.909 53.1364 30.3333 53.6667 30.8636 53.7727C31.9242 53.9848 32.9848 54.0909 34.0454 54.197L33.9393 57.9091ZM34.9999 46.1364C33.303 46.1364 31.606 45.7121 29.909 44.8636C24.3939 42.1061 22.2727 35.3182 25.0302 29.803C27.7878 24.2879 34.5757 22.1667 40.0908 24.9242C42.7424 26.303 44.7575 28.6364 45.606 31.3939C46.5605 34.2576 46.2424 37.2273 44.9696 39.8788C42.9545 43.9091 39.0302 46.1364 34.9999 46.1364ZM36.0605 60.0303C41.6818 59.9242 47.0908 58.7576 51.6515 56.8485C47.7272 62.5758 42.2121 66.3939 36.0605 66.8182V60.0303ZM56.8484 51.6515C58.7575 46.9848 59.9242 41.6818 60.0302 36.0606H66.8181C66.3939 42.2121 62.6818 47.7273 56.8484 51.6515Z" fill="url(#paint1_linear_1071_912)"/>
<defs>
<linearGradient id="paint0_linear_1071_912" x1="68.6161" y1="10.1111" x2="11.7272" y2="69.2626" gradientUnits="userSpaceOnUse">
<stop offset="0.164" stop-color="#3599CC"/>
<stop offset="0.809" stop-color="#012C57"/>
</linearGradient>
<linearGradient id="paint1_linear_1071_912" x1="68.6161" y1="10.1111" x2="11.7272" y2="69.2626" gradientUnits="userSpaceOnUse">
<stop offset="0.164" stop-color="#3599CC"/>
<stop offset="0.809" stop-color="#012C57"/>
</linearGradient>
</defs>
</svg>
