<svg width="70" height="70" viewBox="0 0 70 70" fill="none" xmlns="http://www.w3.org/2000/svg">
<path d="M13.8906 35.0273L17.2402 31.9375C19.0312 30.2832 21.1503 29.3945 23.5839 29.3945L42.9433 29.3262C44.9531 29.3125 46.6894 28.5879 48.166 27.2207L54.6738 21.1914C55.0019 20.8906 55.5214 20.9043 55.8222 21.2324L56.8203 22.3125L58.748 14.7246L51.0371 16.0644L52.0351 17.1445C52.3359 17.4726 52.3222 17.9922 51.9941 18.293L47.332 22.5996C45.5546 24.2402 43.4492 25.1426 41.0019 25.1426L21.6425 25.2109C19.6328 25.2246 17.8964 25.9492 16.4199 27.3164L11.2246 32.1289L13.8906 35.0273ZM18.0332 33.4277L14.4101 36.7773C14.082 37.0781 13.5625 37.0644 13.2617 36.7363L9.46089 32.6347C9.16011 32.3066 9.17379 31.7871 9.50191 31.4863L15.2988 26.1269C17.0898 24.4726 19.2089 23.584 21.6289 23.584L24.8144 23.5703L27.1933 20.9726C24.7734 20.207 23.9668 17.1308 25.7988 15.2851C26.414 14.6699 27.2753 14.2871 28.2187 14.2871H28.5742L25.4023 10.9375C24.3769 9.85741 23.8711 8.51756 24.9511 7.51952C26.1816 6.39842 28.8613 6.56249 30.6933 7.01366C31.7734 3.49999 35.9296 2.2285 38.5957 4.71678C39.2382 5.33202 39.7441 6.11131 40.0175 7.01366C41.8496 6.56249 44.5293 6.38475 45.7597 7.51952C46.8398 8.51756 46.3339 9.85741 45.3086 10.9375L42.1503 14.2598H42.5058C45.5273 14.2598 47.0859 17.9375 44.9257 20.0976C44.5429 20.4805 44.0644 20.7812 43.5312 20.9453L44.8711 22.4082C45.3496 22.1211 45.7871 21.7793 46.2246 21.3828L50.2851 17.623L48.8769 16.0918C48.3574 15.5723 48.6582 14.793 49.2871 14.6836L59.6914 12.8789C60.3203 12.7558 60.7988 13.3164 60.6621 13.8769L58.0507 24.1445C57.8867 24.7598 57.1074 24.9785 56.6562 24.5L55.1933 22.914L49.6289 28.0683C51.9257 31.2129 53.7031 34.7129 53.7031 38.664C53.7031 42.0273 52.8007 45.1855 51.2011 47.9062C52.4589 47.5918 53.8945 47.7012 54.7832 48.5078C55.1523 48.8496 55.3847 49.2734 55.4394 49.7656C57.2168 49.1367 59.3906 49.3144 60.3476 50.5859C61.2363 51.7754 60.5937 53.1973 59.1308 54.168C58.3789 54.6738 57.3535 55.3711 56.164 56.1914C51.2285 59.5683 43.5586 64.832 40.7148 65.625C39.8261 65.8711 24.2128 65.5566 20.4531 65.5566C20.1386 66.1855 19.4687 66.5957 18.7304 66.582C17.2128 66.5683 15.6816 66.582 14.164 66.541C13.1113 66.5273 12.3046 65.625 12.3183 64.6133C12.373 60.334 12.455 56.0683 12.5371 51.789C12.5507 50.7363 13.4121 49.957 14.4511 49.957C15.9687 49.9707 17.5 49.957 19.0175 49.998C19.8378 50.0117 20.5351 50.5723 20.7675 51.3379L21.4785 50.6953C18.6074 47.3867 16.9941 43.1348 16.9941 38.6777C16.9941 36.8457 17.3769 35.0957 18.0332 33.4277ZM40.9336 30.9531L29.5859 30.9941C28.2187 31.9101 27.0839 33.1406 26.291 34.6035C24.1171 38.5547 24.8007 43.4765 27.9589 46.7031C29.4355 45.7051 30.707 44.6387 32.6211 43.914C32.2246 43.3672 31.9921 42.7109 31.9921 42C31.9921 41.5488 32.3613 41.1797 32.8125 41.1797C33.2636 41.1797 33.6328 41.5488 33.6328 42C33.6328 42.3418 33.7285 42.6562 33.9062 42.916C34.0566 43.1348 34.248 43.3125 34.4804 43.4492C35.041 43.3808 35.5605 43.3945 36.0253 43.4765C36.2714 43.3535 36.4765 43.1758 36.6406 42.9433C36.832 42.6699 36.9414 42.3418 36.9414 41.9863C36.9414 40.7558 36.0254 40.5234 35.0957 40.3047C33.5507 39.9355 31.9921 39.5664 31.9921 37.0371C31.9921 35.5195 33.0312 34.2207 34.4668 33.8515V32.9219C34.4668 32.4707 34.8359 32.1015 35.2871 32.1015C35.7382 32.1015 36.1074 32.4707 36.1074 32.9219V33.8515C37.5429 34.2207 38.582 35.5195 38.582 37.0371C38.582 37.4883 38.2129 37.8574 37.7617 37.8574C37.3105 37.8574 36.9414 37.4883 36.9414 37.0371C36.9414 35.5742 35.1503 34.8359 34.125 35.875C33.8242 36.1758 33.6464 36.5859 33.6464 37.0371C33.6464 38.2676 34.5625 38.5 35.4921 38.7187C37.0371 39.0879 38.5957 39.457 38.5957 41.9863C38.5957 42.834 38.2675 43.6269 37.7207 44.2285C39.3476 45.5957 39.0742 48.0019 37.4199 49.5605C44.1601 48.1387 47.6054 40.5644 44.2832 34.5625C43.4765 33.1133 42.3281 31.8691 40.9336 30.9531ZM20.8496 53.4297C20.8086 56.916 20.7265 60.416 20.6718 63.916C24.3906 63.9297 39.4433 64.1894 40.3593 64.0254C42.9843 63.2597 50.4492 58.1328 55.248 54.8379C56.4375 54.0176 57.4628 53.3203 58.2285 52.8008C59.0898 52.2265 59.5 51.6523 58.6113 51.2422C57.9003 50.914 56.7656 50.914 55.5625 51.4609L46.1836 55.8496C44.625 56.5742 37.1191 55.8769 34.6582 55.6308C32.4296 55.3984 30.4609 55.0703 29.3398 54.7558C28.9707 54.8515 28.5742 54.6601 28.4101 54.3047C28.041 53.5117 29.1347 52.5957 30.5429 51.7207C31.705 50.9961 33.2636 50.1348 34.9589 49.2461C34.9726 49.2324 35 49.2187 35.0273 49.2051C38.6914 47.5508 37.5293 43.3398 32.4707 45.7598C30.2421 46.8262 28.6015 48.6035 26.7558 49.1504C24.5957 49.793 22.791 51.7754 20.9453 53.3613C20.9043 53.3887 20.8769 53.416 20.8496 53.4297ZM44.5976 54.5234C45.0488 54.4961 45.3632 54.4551 45.5 54.3867L53.498 50.6406C53.7441 50.3398 53.8398 50.1074 53.8261 49.9297C53.7578 49.3828 52.0351 48.959 50.2578 50.0664L49.1503 50.75C47.8515 52.2402 46.3066 53.5117 44.5976 54.5234ZM42.4921 15.9004H28.2187C26.6601 15.9004 25.8261 17.8008 26.9609 18.9492C27.289 19.2773 27.7265 19.4687 28.2187 19.4687H42.5058C44.0644 19.4687 44.8984 17.5683 43.7636 16.4336C43.4355 16.1055 42.9843 15.9004 42.4921 15.9004Z" fill="url(#paint0_linear_1071_964)"/>
<defs>
<linearGradient id="paint0_linear_1071_964" x1="60.5086" y1="11.8419" x2="8.24511" y2="56.158" gradientUnits="userSpaceOnUse">
<stop offset="0.164" stop-color="#3599CC"/>
<stop offset="0.809" stop-color="#012C57"/>
</linearGradient>
</defs>
</svg>
