<svg width="70" height="70" viewBox="0 0 70 70" fill="none" xmlns="http://www.w3.org/2000/svg">
<g clip-path="url(#clip0_1071_883)">
<path d="M31.9299 57.7193H38.0703V63.8597H31.9299V57.7193Z" fill="url(#paint0_linear_1071_883)"/>
<path d="M2.37006 7.36841L0.466553 32.986C0.762348 33.0326 1.04609 33.1369 1.30164 33.293L7.11041 36.9772L4.99813 7.36841H2.37006Z" fill="url(#paint1_linear_1071_883)"/>
<path d="M38.0702 46.6667C37.9231 46.6618 37.7779 46.6328 37.6404 46.5807H37.5298H37.4193L19.6491 35.3684V44.2105H27.0175C27.6958 44.2105 28.2456 44.7603 28.2456 45.4386C28.2456 46.1168 27.6958 46.6667 27.0175 46.6667H18.4211C18.2779 46.6626 18.1366 46.6335 18.0035 46.5807H17.9053H17.7825L0.282456 35.614L0 39.2982V44.2105H7.36842C8.04667 44.2105 8.59649 44.7603 8.59649 45.4386C8.59649 46.1168 8.04667 46.6667 7.36842 46.6667H0V50.3509H42.9825V46.6667H38.0702Z" fill="url(#paint2_linear_1071_883)"/>
<path d="M0 68.7719H42.9825V52.807H0V68.7719ZM29.4737 57.7193C29.4737 56.3628 30.5733 55.2631 31.9298 55.2631H38.0702C39.4267 55.2631 40.5263 56.3628 40.5263 57.7193V63.8596C40.5263 65.2161 39.4267 66.3158 38.0702 66.3158H31.9298C30.5733 66.3158 29.4737 65.2161 29.4737 63.8596V57.7193ZM15.9649 57.7193C15.9649 56.3628 17.0646 55.2631 18.4211 55.2631H24.5614C25.9179 55.2631 27.0175 56.3628 27.0175 57.7193V63.8596C27.0175 65.2161 25.9179 66.3158 24.5614 66.3158H18.4211C17.0646 66.3158 15.9649 65.2161 15.9649 63.8596V57.7193ZM2.45614 57.7193C2.45614 56.3628 3.55579 55.2631 4.91228 55.2631H11.0526C12.4091 55.2631 13.5088 56.3628 13.5088 57.7193V63.8596C13.5088 65.2161 12.4091 66.3158 11.0526 66.3158H4.91228C3.55579 66.3158 2.45614 65.2161 2.45614 63.8596V57.7193Z" fill="url(#paint3_linear_1071_883)"/>
<path d="M18.4211 57.7193H24.5615V63.8597H18.4211V57.7193Z" fill="url(#paint4_linear_1071_883)"/>
<path d="M4.91235 57.7193H11.0527V63.8597H4.91235V57.7193Z" fill="url(#paint5_linear_1071_883)"/>
<path d="M68.772 39.2982H67.544C67.539 35.0287 64.4012 31.4099 60.1755 30.8V27.0175C60.1755 23.6263 57.4264 20.8772 54.0352 20.8772H40.5264V18.421H42.9826C43.6608 18.421 44.2106 17.8712 44.2106 17.193C44.2106 16.5147 43.6608 15.9649 42.9826 15.9649H40.5264C40.5307 14.6574 40.0136 13.4022 39.0896 12.4772C38.4585 11.8814 37.6845 11.4584 36.8422 11.2491V6.14034C36.8422 3.42736 34.6429 1.22806 31.9299 1.22806H22.1054C19.3924 1.22806 17.1931 3.42736 17.1931 6.14034V11.2246C15.03 11.7831 13.5161 13.7308 13.5089 15.9649H12.2808C11.6026 15.9649 11.0527 16.5147 11.0527 17.193C11.0527 17.8712 11.6026 18.421 12.2808 18.421H13.5089V40.9193L17.1931 43.2281V35.3684C17.1958 34.4769 17.6813 33.6568 18.4618 33.2257C19.2422 32.7947 20.1949 32.8204 20.951 33.293L23.3334 34.7789V18.421H30.7019V39.3842L38.4264 44.2105H40.5264V23.3333H54.0352C56.0699 23.3333 57.7194 24.9828 57.7194 27.0175V30.8C53.4937 31.4099 50.356 35.0287 50.351 39.2982H49.1229C48.4447 39.2982 47.8948 39.8481 47.8948 40.5263C47.8948 41.2046 48.4447 41.7544 49.1229 41.7544H50.351V67.5439C50.351 68.2221 50.9008 68.7719 51.579 68.7719H62.6317V56.4912C62.6317 55.813 63.1815 55.2631 63.8597 55.2631C64.538 55.2631 65.0878 55.813 65.0878 56.4912V68.7719H66.3159C66.9941 68.7719 67.544 68.2221 67.544 67.5439V41.7544H68.772C69.4503 41.7544 70.0001 41.2046 70.0001 40.5263C70.0001 39.8481 69.4503 39.2982 68.772 39.2982ZM34.3861 11.2246C32.2229 11.7831 30.7091 13.7308 30.7019 15.9649H23.3334C23.3377 14.6574 22.8206 13.4022 21.8966 12.4772C21.2655 11.8814 20.4915 11.4584 19.6492 11.2491V6.14034C19.6492 4.78385 20.7489 3.6842 22.1054 3.6842H31.9299C33.2864 3.6842 34.3861 4.78385 34.3861 6.14034V11.2246ZM65.0878 49.1228C65.0878 49.801 64.538 50.3509 63.8597 50.3509C63.1815 50.3509 62.6317 49.801 62.6317 49.1228V41.7544H65.0878V49.1228Z" fill="url(#paint6_linear_1071_883)"/>
</g>
<defs>
<linearGradient id="paint0_linear_1071_883" x1="38.041" y1="58.538" x2="32.8948" y2="63.8889" gradientUnits="userSpaceOnUse">
<stop offset="0.164" stop-color="#3599CC"/>
<stop offset="0.809" stop-color="#012C57"/>
</linearGradient>
<linearGradient id="paint1_linear_1071_883" x1="7.07878" y1="11.3162" x2="-3.9111" y2="13.8803" gradientUnits="userSpaceOnUse">
<stop offset="0.164" stop-color="#3599CC"/>
<stop offset="0.809" stop-color="#012C57"/>
</linearGradient>
<linearGradient id="paint2_linear_1071_883" x1="42.7778" y1="37.3661" x2="35.2036" y2="59.9595" gradientUnits="userSpaceOnUse">
<stop offset="0.164" stop-color="#3599CC"/>
<stop offset="0.809" stop-color="#012C57"/>
</linearGradient>
<linearGradient id="paint3_linear_1071_883" x1="42.7778" y1="54.9357" x2="34.2938" y2="78.6856" gradientUnits="userSpaceOnUse">
<stop offset="0.164" stop-color="#3599CC"/>
<stop offset="0.809" stop-color="#012C57"/>
</linearGradient>
<linearGradient id="paint4_linear_1071_883" x1="24.5323" y1="58.538" x2="19.3861" y2="63.8889" gradientUnits="userSpaceOnUse">
<stop offset="0.164" stop-color="#3599CC"/>
<stop offset="0.809" stop-color="#012C57"/>
</linearGradient>
<linearGradient id="paint5_linear_1071_883" x1="11.0235" y1="58.538" x2="5.87727" y2="63.8889" gradientUnits="userSpaceOnUse">
<stop offset="0.164" stop-color="#3599CC"/>
<stop offset="0.809" stop-color="#012C57"/>
</linearGradient>
<linearGradient id="paint6_linear_1071_883" x1="69.7194" y1="10.2339" x2="13.3343" y2="61.3999" gradientUnits="userSpaceOnUse">
<stop offset="0.164" stop-color="#3599CC"/>
<stop offset="0.809" stop-color="#012C57"/>
</linearGradient>
<clipPath id="clip0_1071_883">
<rect width="70" height="70" fill="white"/>
</clipPath>
</defs>
</svg>
