<svg width="70" height="70" viewBox="0 0 70 70" fill="none" xmlns="http://www.w3.org/2000/svg">
<path fill-rule="evenodd" clip-rule="evenodd" d="M4.06632 55.1124H32.8255C33.2044 57.0142 33.881 58.8082 34.8044 60.4446H4.06632C3.74106 60.4446 3.47583 60.1794 3.47583 59.8541V55.7031C3.47569 55.3777 3.74106 55.1124 4.06632 55.1124ZM8.86966 26.3162V52.9249H15.451V32.0138C15.451 31.3633 15.9816 30.8327 16.6321 30.8327H27.4212C28.0717 30.8327 28.6023 31.3633 28.6023 32.0138V52.9249H32.5262C32.4923 52.4723 32.4751 52.0149 32.4751 51.5536C32.4751 47.3273 33.9221 43.4388 36.3479 40.3569C35.8722 40.2042 35.5263 39.7571 35.5263 39.2319V32.0138C35.5263 31.3633 36.0569 30.8327 36.7074 30.8327H49.4124C50.0629 30.8327 50.5935 31.3633 50.5935 32.0138V33.4354C52.7238 33.4354 54.7683 33.803 56.6669 34.4784V26.3162C56.1865 26.3997 55.6924 26.4433 55.1881 26.4433C52.0774 26.4433 49.2314 24.7657 47.7149 22.0676C46.1982 24.7657 43.3523 26.4433 40.2416 26.4433C37.1309 26.4433 34.2847 24.7657 32.7684 22.0676C31.252 24.7657 28.4058 26.4433 25.2952 26.4433C22.1846 26.4433 19.3385 24.7657 17.822 22.0676C16.3055 24.7657 13.4593 26.4433 10.3487 26.4433C9.84419 26.4433 9.35009 26.3997 8.86966 26.3162ZM50.5935 35.6228C41.7951 35.6228 34.6626 42.7553 34.6626 51.5536C34.6626 60.3519 41.7951 67.4845 50.5935 67.4845C59.3919 67.4845 66.5244 60.352 66.5244 51.5536C66.5244 42.7553 59.3919 35.6228 50.5935 35.6228ZM43.2838 44.946H41.1276C40.5236 44.946 40.0339 44.4563 40.0339 43.8523C40.0339 43.2483 40.5236 42.7585 41.1276 42.7585L44.1274 42.763C44.6137 42.7626 45.0569 43.0903 45.1827 43.5832L45.715 45.6553H60.0596C60.8153 45.6553 61.3355 46.402 61.0943 47.1044L59.4876 53.7711C59.1474 55.183 57.9187 56.159 56.4647 56.159H46.7749C46.6129 56.159 46.4765 56.2955 46.4765 56.4575C46.4765 56.6194 46.6131 56.7558 46.7749 56.7558H58.6937C59.2977 56.7558 59.7874 57.2455 59.7874 57.8495C59.7874 58.4536 59.2977 58.9433 58.6937 58.9433H58.1237C58.4271 59.2344 58.616 59.6437 58.616 60.0973C58.616 60.9804 57.9001 61.6961 57.0172 61.6961C56.1342 61.6961 55.4184 60.9803 55.4184 60.0973C55.4184 59.6437 55.6074 59.2342 55.9108 58.9433H48.742C49.0454 59.2344 49.2344 59.6437 49.2344 60.0973C49.2344 60.9804 48.5185 61.6961 47.6356 61.6961C46.7526 61.6961 46.0368 60.9803 46.0368 60.0973C46.0368 59.6378 46.2307 59.2237 46.541 58.9321C45.2806 58.8135 44.2888 57.748 44.2888 56.4573C44.2888 55.5118 44.8275 54.6518 45.6687 54.2318C44.8737 51.1365 44.0787 48.0413 43.2838 44.946ZM4.67417 16.7827H16.9816L20.7416 2.5155H12.1986C12.1325 2.5155 12.1081 2.52439 12.0771 2.58509L4.67417 16.7827ZM19.2385 16.7827L22.9984 2.5155H31.6745V16.7827H19.2385ZM33.862 16.7827H46.2981L42.538 2.5155H33.862V16.7827ZM53.338 2.5155C53.4416 2.5155 53.4586 2.58345 53.5011 2.66507L60.8623 16.7827H48.5549L44.795 2.5155H53.338ZM61.474 18.9702C60.9472 22.0199 58.2903 24.2558 55.1879 24.2558C52.0854 24.2558 49.4288 22.0199 48.902 18.9702H61.474ZM46.5275 18.9702C46.0007 22.0201 43.3441 24.2558 40.2416 24.2558C37.1391 24.2558 34.4824 22.0199 33.9556 18.9702H46.5275ZM31.581 18.9702C31.0542 22.0201 28.3975 24.2558 25.295 24.2558C22.1925 24.2558 19.536 22.0201 19.0091 18.9702H31.581ZM16.6346 18.9702C16.1078 22.0201 13.4511 24.2558 10.3485 24.2558C7.24612 24.2558 4.58927 22.0199 4.06249 18.9702H16.6346Z" fill="url(#paint0_linear_1071_949)"/>
<defs>
<linearGradient id="paint0_linear_1071_949" x1="66.2241" y1="11.178" x2="11.7347" y2="66.1599" gradientUnits="userSpaceOnUse">
<stop offset="0.164" stop-color="#3599CC"/>
<stop offset="0.809" stop-color="#012C57"/>
</linearGradient>
</defs>
</svg>
