<svg width="70" height="70" viewBox="0 0 70 70" fill="none" xmlns="http://www.w3.org/2000/svg">
<path d="M67.8787 44.8637H43.909V35.3182L48.0454 37.8637C48.8939 38.394 49.9545 38.7121 51.0151 38.7121H58.0151C59.9242 38.7121 61.409 37.2273 61.409 35.4243C61.409 34.4697 61.0908 33.6212 60.4545 32.9849C59.8181 32.3485 58.9696 31.9243 58.0151 31.9243H51.4393L46.5605 28.2121C45.2878 27.2576 43.803 26.7273 42.2121 26.7273H29.4848C26.409 26.7273 23.6515 28.7424 22.5908 31.6061L18.8787 42.4243C18.6666 43.2727 18.6666 44.0152 18.9848 44.7576H2.12115C1.48479 44.7576 1.06055 45.2879 1.06055 45.8182V53.0303C1.06055 53.5606 1.48479 54.0909 2.12115 54.0909H6.15146V67.4546C6.15146 67.9849 6.5757 68.5152 7.21206 68.5152H62.7878C63.4242 68.5152 63.8484 67.9849 63.8484 67.4546V54.197H67.8787C68.409 54.197 68.9393 53.6667 68.9393 53.1364V45.9243C68.9393 45.2879 68.5151 44.8637 67.8787 44.8637ZM20.8939 43.1667L24.4999 32.4546C25.1363 30.5455 26.9393 29.1667 28.9545 28.9546L34.9999 35C35.2121 35.2121 35.5302 35.3182 35.7424 35.3182C36.0605 35.3182 36.2727 35.2121 36.4848 35L42.5302 28.9546C43.4848 29.0606 44.3333 29.3788 45.0757 29.9091L50.2727 33.8334C50.4848 33.9394 50.6969 34.0455 50.909 34.0455H57.909C58.2272 34.0455 58.5454 34.1515 58.8636 34.4697C59.0757 34.6818 59.2878 35.1061 59.2878 35.4243C59.2878 36.1667 58.6515 36.697 58.0151 36.697H51.0151C50.3787 36.697 49.7424 36.4849 49.106 36.1667L43.4848 32.5606C43.1666 32.3485 42.7424 32.3485 42.4242 32.5606C42.106 32.7727 41.8939 33.0909 41.8939 33.5152V44.9697H34.6818C34.7878 44.6515 34.8939 44.3334 34.8939 44.0152C34.8939 42.3182 33.5151 40.9394 31.8181 40.9394H27.3636L28.8484 36.9091C29.0605 36.3788 28.7424 35.7424 28.2121 35.5303C27.6818 35.3182 27.0454 35.6364 26.8333 36.1667L24.8181 41.5758C24.7121 41.894 24.7121 42.3182 24.9242 42.5303C25.1363 42.8485 25.4545 42.9546 25.7727 42.9546H31.7121C32.2424 42.9546 32.6666 43.3788 32.6666 43.9091C32.6666 44.4394 32.2424 44.8637 31.7121 44.8637H22.0605C21.6363 44.8637 21.2121 44.6515 20.9999 44.3334C20.7878 44.0152 20.6818 43.4849 20.8939 43.1667ZM66.8181 52.0758H3.18176V46.9849H66.8181V52.0758Z" fill="url(#paint0_linear_1071_940)"/>
<path d="M26.3031 13.3637C26.197 12.8333 25.6667 12.4091 25.1364 12.5152C24.0758 12.6212 23.4394 12.303 23.3334 12.0909C23.2273 11.8788 23.5455 11.2424 24.394 10.6061C24.8182 10.2879 24.9243 9.65153 24.7121 9.22729C23.7576 7.63638 22.5909 6.25759 21 5.19698C20.5758 4.8788 19.9394 4.98486 19.5152 5.4091C18.8788 6.25759 18.2425 6.46971 17.9243 6.36365C17.7121 6.25759 17.5 5.51516 17.6061 4.56062C17.7122 4.03032 17.394 3.50001 16.8637 3.39395C15.0606 2.96971 13.2576 2.86365 11.4546 3.18183C10.9243 3.28789 10.5 3.81819 10.6061 4.3485C10.7121 5.51516 10.394 6.04547 10.1818 6.15153C9.96973 6.25759 9.33336 5.93941 8.697 5.09092C8.37882 4.56062 7.84851 4.45456 7.31821 4.77274C5.7273 5.72729 4.34851 6.89395 3.28791 8.48486C3.28791 8.48486 3.18185 8.59092 3.18185 8.69698C3.07579 9.01516 3.18185 9.54547 3.50003 9.86365C4.34851 10.5 4.56063 11.1364 4.45457 11.4546C4.45457 11.6667 3.81821 11.8788 2.65154 11.6667C2.12124 11.5606 1.697 11.8788 1.48488 12.303C1.48488 12.4091 1.48488 12.4091 1.37882 12.5152C0.954573 14.3182 0.848513 16.1212 1.16669 17.9243C1.27276 18.4546 1.80306 18.8788 2.33336 18.7727C3.39397 18.6667 4.03033 18.9849 4.13639 19.197C4.24245 19.4091 3.92427 20.0455 3.07579 20.6818C2.65154 21 2.43942 21.6364 2.7576 22.0606C3.71215 23.6515 4.87882 25.0303 6.46973 26.0909C6.89397 26.4091 7.53033 26.303 7.95457 25.8788C8.59094 25.0303 9.2273 24.8182 9.54548 24.9243C9.7576 25.0303 10.0758 25.6667 9.86366 26.7273C9.7576 27.2576 10.0758 27.7879 10.6061 28C11.6667 28.2121 12.7273 28.4243 13.7879 28.4243C14.5303 28.4243 15.2728 28.3182 16.1212 28.2121C16.6515 28.1061 17.0758 27.5758 16.9697 27.0455C16.8637 25.9849 17.1818 25.3485 17.394 25.2424C17.6061 25.1364 18.2425 25.4546 18.8788 26.303C19.197 26.7273 19.8334 26.9394 20.2576 26.6212C21.8485 25.6667 23.2273 24.394 24.1818 22.9091C24.1818 22.803 24.2879 22.803 24.2879 22.697C24.5 22.2727 24.394 21.7424 23.9697 21.4243C23.1212 20.7879 22.9091 20.0455 23.0152 19.8333C23.1212 19.6212 23.8637 19.4091 24.8182 19.5152C25.2425 19.6212 25.7728 19.303 25.9849 18.8788C25.9849 18.7727 25.9849 18.7727 26.0909 18.6667C26.5152 17.0758 26.6212 15.1667 26.3031 13.3637ZM24.1818 17.394C22.697 17.2879 21.5303 17.9243 21.1061 18.9849C20.5758 20.0455 21 21.3182 21.9546 22.3788C21.3182 23.1212 20.6818 23.7576 19.9394 24.2879C18.8788 23.2273 17.7122 22.803 16.6515 23.2273C15.5909 23.6515 14.9546 24.7121 14.8485 26.197C14 26.303 13.0455 26.303 12.0909 26.0909C12.0909 24.6061 11.5606 23.4394 10.5 23.0152C9.43942 22.4849 8.16669 22.9091 7.10609 23.8636C6.36366 23.2273 5.7273 22.5909 5.197 21.8485C6.2576 20.7879 6.68185 19.6212 6.2576 18.5606C5.83336 17.5 4.77276 16.8637 3.28791 16.7576C3.18185 15.697 3.18185 14.8485 3.28791 13.894C4.77276 13.894 5.93942 13.3637 6.36366 12.303C6.89397 11.2424 6.46972 9.96971 5.51518 8.9091C6.15154 8.16668 6.78791 7.53032 7.53033 7.00001C8.59094 8.06062 9.7576 8.48486 10.8182 8.06062C11.8788 7.63638 12.5152 6.57577 12.6212 5.09092C13.5758 4.98486 14.4243 4.98486 15.3788 5.19698C15.3788 6.68183 15.9091 7.8485 16.9697 8.27274C18.0303 8.69698 19.3031 8.48486 20.3637 7.42426C21.2122 8.06062 21.8485 8.80304 22.3788 9.54547C21.3182 10.6061 20.894 11.7727 21.3182 12.8333C21.7425 13.894 22.8031 14.5303 24.2879 14.6364C24.394 15.5909 24.394 16.5455 24.1818 17.394Z" fill="url(#paint1_linear_1071_940)"/>
<path d="M19.4092 17.9243C18.7728 19.4091 17.6061 20.5758 16.1213 21.2121C15.3788 21.5303 14.6364 21.6364 13.7879 21.6364C13.0455 21.6364 12.197 21.5303 11.4546 21.2121C9.96976 20.5758 8.80309 19.4091 8.16673 17.9243C7.53036 16.4394 7.53036 14.7424 8.16673 13.2576C9.43945 10.1818 13.0455 8.69698 16.1213 9.9697C19.197 11.3485 20.6819 14.8485 19.4092 17.9243Z" fill="url(#paint2_linear_1071_940)"/>
<path d="M68.8335 8.27274C68.8335 8.16668 68.8335 8.16668 68.8335 8.27274C68.7274 8.16668 68.7274 8.06061 68.7274 8.06061L64.6971 1.80304C64.485 1.48486 64.1668 1.27274 63.8486 1.27274H49.2123C48.8941 1.27274 48.5759 1.48486 48.3638 1.80304L44.3335 8.06061V8.16668C44.3335 8.16668 44.3335 8.27274 44.2274 8.27274C44.2274 8.3788 44.1213 8.48486 44.1213 8.59092C44.1213 8.69698 44.1213 8.80304 44.2274 8.9091V9.01516C44.2274 9.01516 44.2274 9.12122 44.3335 9.12122L55.6819 25.7727C55.788 25.8788 55.788 25.8788 55.8941 25.9849H56.0001C56.0001 25.9849 56.1062 26.0909 56.2122 26.0909H56.3183C56.3183 26.0909 56.5304 26.0909 56.6365 26.0909C56.7426 26.0909 56.8486 26.0909 56.9547 26.0909H57.0607C57.0607 26.0909 57.1668 25.9849 57.2729 25.9849H57.3789C57.485 25.8788 57.591 25.8788 57.591 25.7727L68.7274 9.22728V9.12122V9.01516C68.9395 8.9091 68.9395 8.69698 68.9395 8.59092C68.9395 8.48486 68.9395 8.3788 68.8335 8.27274ZM54.5153 3.39395H58.4395L59.5001 7.53031H53.5607L54.5153 3.39395ZM47.091 9.65152H51.3335L53.8789 19.6212L47.091 9.65152ZM59.0759 19.6212L61.6213 9.65152H65.8638L59.0759 19.6212Z" fill="url(#paint3_linear_1071_940)"/>
<path d="M42.8486 15.4849C42.8486 11.6667 39.7729 8.59091 35.8486 8.59091C32.0304 8.59091 28.8486 11.6667 28.8486 15.4849V17.9242C28.8486 21.7424 31.9244 24.9242 35.8486 24.9242C39.6668 24.9242 42.7426 21.7424 42.7426 17.9242V15.697C42.7426 15.5909 42.8486 15.4849 42.8486 15.4849ZM35.8486 22.697C33.1971 22.697 30.9698 20.4697 30.9698 17.8182V16.9697C31.6062 17.1818 32.1365 17.1818 32.6668 17.1818C34.5759 17.1818 36.1668 16.4394 37.1214 15.9091C37.3335 15.803 37.6517 15.697 37.7577 15.5909L40.5153 16.2273V17.8182C40.7274 20.5758 38.5001 22.697 35.8486 22.697Z" fill="url(#paint4_linear_1071_940)"/>
<defs>
<linearGradient id="paint0_linear_1071_940" x1="68.6161" y1="32.299" x2="37.8856" y2="84.2019" gradientUnits="userSpaceOnUse">
<stop offset="0.164" stop-color="#3599CC"/>
<stop offset="0.809" stop-color="#012C57"/>
</linearGradient>
<linearGradient id="paint1_linear_1071_940" x1="26.3666" y1="6.38715" x2="5.05868" y2="28.6113" gradientUnits="userSpaceOnUse">
<stop offset="0.164" stop-color="#3599CC"/>
<stop offset="0.809" stop-color="#012C57"/>
</linearGradient>
<linearGradient id="paint2_linear_1071_940" x1="19.8072" y1="11.13" x2="9.64906" y2="21.7384" gradientUnits="userSpaceOnUse">
<stop offset="0.164" stop-color="#3599CC"/>
<stop offset="0.809" stop-color="#012C57"/>
</linearGradient>
<linearGradient id="paint3_linear_1071_940" x1="68.8213" y1="4.58183" x2="48.0213" y2="26.2091" gradientUnits="userSpaceOnUse">
<stop offset="0.164" stop-color="#3599CC"/>
<stop offset="0.809" stop-color="#012C57"/>
</linearGradient>
<linearGradient id="paint4_linear_1071_940" x1="42.782" y1="10.7687" x2="29.173" y2="22.8975" gradientUnits="userSpaceOnUse">
<stop offset="0.164" stop-color="#3599CC"/>
<stop offset="0.809" stop-color="#012C57"/>
</linearGradient>
</defs>
</svg>
