<svg width="70" height="70" viewBox="0 0 70 70" fill="none" xmlns="http://www.w3.org/2000/svg">
<path d="M43.75 56.8422C42.6387 57.2884 41.4903 57.6625 40.3025 57.9359L39.8213 64.2053C39.76 65.0059 39.0906 65.625 38.2878 65.625H31.71C30.9072 65.625 30.24 65.0059 30.1787 64.2075L29.6975 57.9381C27.1206 57.3453 24.7122 56.3281 22.5356 54.9653L17.7559 59.0625C17.1456 59.5853 16.2378 59.5503 15.6691 58.9816L11.0184 54.3309C10.4497 53.7622 10.4169 52.8544 10.9375 52.2441L15.0347 47.4644C13.6741 45.2878 12.6569 42.8794 12.0619 40.3025L5.7925 39.8213C4.99406 39.76 4.375 39.0906 4.375 38.2878V31.71C4.375 30.9072 4.99406 30.24 5.7925 30.1787L12.0619 29.6975C12.6547 27.1206 13.6719 24.7122 15.0347 22.5356L10.9397 17.7559C10.4169 17.1478 10.4519 16.2378 11.0184 15.6713L15.6691 11.0206C16.2356 10.4541 17.1456 10.4191 17.7559 10.9397L22.5356 15.0369C24.7122 13.6763 27.1206 12.6591 29.6975 12.0641L30.1787 5.79469C30.24 4.99406 30.9094 4.375 31.7122 4.375H38.29C39.0928 4.375 39.76 4.99406 39.8213 5.7925L39.8497 6.15781C38.1522 8.76312 37.1875 11.8344 37.1875 15.0828C37.1875 17.7122 37.8088 20.2322 38.9441 22.4809C37.6994 22.0872 36.3738 21.875 35 21.875C27.7506 21.875 21.875 27.7506 21.875 35C21.875 42.2494 27.7506 48.125 35 48.125C38.3666 48.125 41.4269 46.8475 43.75 44.7628V56.8422Z" fill="url(#paint0_linear_1071_919)"/>
<path d="M59.0625 25.7884V60.1562C59.0625 63.1772 56.6147 65.625 53.5938 65.625C50.5728 65.625 48.125 63.1772 48.125 60.1562V25.7884C44.2313 23.7956 41.5625 19.7553 41.5625 15.0806C41.5625 10.5634 44.0562 6.63468 47.74 4.57843C47.9084 4.48656 48.125 4.61781 48.125 4.81031V17.5L53.5938 19.6875L59.0625 17.5V4.81031C59.0625 4.61781 59.2791 4.48656 59.4475 4.58062C63.1313 6.63687 65.625 10.5634 65.625 15.0828C65.625 19.7553 62.9562 23.7978 59.0625 25.7884Z" fill="url(#paint1_linear_1071_919)"/>
<defs>
<linearGradient id="paint0_linear_1071_919" x1="43.5625" y1="12.5417" x2="-3.90609" y2="44.2709" gradientUnits="userSpaceOnUse">
<stop offset="0.164" stop-color="#3599CC"/>
<stop offset="0.809" stop-color="#012C57"/>
</linearGradient>
<linearGradient id="paint1_linear_1071_919" x1="65.5104" y1="12.692" x2="29.5718" y2="27.414" gradientUnits="userSpaceOnUse">
<stop offset="0.164" stop-color="#3599CC"/>
<stop offset="0.809" stop-color="#012C57"/>
</linearGradient>
</defs>
</svg>
